<svg xmlns="http://www.w3.org/2000/svg" version="1.1" xmlns:xlink="http://www.w3.org/1999/xlink" xmlns:svgjs="http://svgjs.dev/svgjs" width="1500" height="1500" viewBox="0 0 1500 1500"><rect width="1500" height="1500" fill="#102e44"></rect><g transform="matrix(0.6666666666666666,0,0,0.6666666666666666,249.39393939393938,500.95825221153194)"><svg viewBox="0 0 396 197" data-background-color="#102e44" preserveAspectRatio="xMidYMid meet" height="746" width="1500" xmlns="http://www.w3.org/2000/svg" xmlns:xlink="http://www.w3.org/1999/xlink"><g id="tight-bounds" transform="matrix(1,0,0,1,0.2400000000000091,0.14857435856875156)"><svg viewBox="0 0 395.52 196.7028512828625" height="196.7028512828625" width="395.52"><g><svg viewBox="0 0 397.4975999999999 197.68636553927678" height="196.7028512828625" width="395.52"><g><rect width="397.4975999999999" height="6.054872279360148" x="0" y="108.63973610656787" fill="#ffffff" opacity="1" stroke-width="0" stroke="transparent" fill-opacity="1" class="rect-qz-0" data-fill-palette-color="secondary" rx="1%" id="qz-0" data-palette-color="#ffffff"></rect></g><g transform="matrix(1,0,0,1,0.9887999999999693,130.5450593790174)"><svg viewBox="0 0 395.52 67.14130616025938" height="67.14130616025938" width="395.52"><g id="textblocktransform"><svg viewBox="0 0 395.52 67.14130616025938" height="67.14130616025938" width="395.52" id="textblock"><g><svg viewBox="0 0 395.52 67.14130616025938" height="67.14130616025938" width="395.52"><g transform="matrix(1,0,0,1,0,0)"><svg width="395.52" viewBox="2.5 -36.3 215.88 36.65" height="67.14130616025938" data-palette-color="#ffffff"><path d="M25.15 0.35L25.15 0.35Q23.4 0.35 22.13-0.53 20.85-1.4 19.93-2.8 19-4.2 18.32-5.88 17.65-7.55 17.05-9.1L17.05-9.1Q16.15-11.6 15.4-13.48 14.65-15.35 13.75-16.65L13.75-16.65Q12.8-12.85 12.23-9.35 11.65-5.85 11.5-1.55L11.5-1.55Q10.6-0.7 9.47-0.25 8.35 0.2 7.2 0.2L7.2 0.2Q5.45 0.2 4.1-1.03 2.75-2.25 2.75-5.15L2.75-5.15Q2.75-7.15 3.35-9.65 3.95-12.15 4.83-14.8 5.7-17.45 6.6-19.95 7.5-22.45 8.1-24.48 8.7-26.5 8.7-27.7L8.7-27.7Q8.7-28.95 7.85-28.95L7.85-28.95Q6.9-28.95 5.55-27.53 4.2-26.1 2.8-23.55L2.8-23.55 2.5-23.65Q2.5-26.65 3.8-29 5.1-31.35 7.33-32.98 9.55-34.6 12.48-35.45 15.4-36.3 18.6-36.3L18.6-36.3Q22.85-36.3 25.5-34.98 28.15-33.65 29.43-31.58 30.7-29.5 30.7-27.15L30.7-27.15Q30.7-24.75 29.48-22.45 28.25-20.15 26.03-18.63 23.8-17.1 20.75-16.85L20.75-16.85Q21.8-16.05 22.55-14.83 23.3-13.6 24.1-12.05L24.1-12.05Q24.8-10.65 25.75-9.38 26.7-8.1 28.35-8.1L28.35-8.1Q29.2-8.1 29.75-8.53 30.3-8.95 30.7-9.95L30.7-9.95 31-9.8Q31.25-9.05 31.33-8.35 31.4-7.65 31.4-7.05L31.4-7.05Q31.4-3.9 29.65-1.78 27.9 0.35 25.15 0.35ZM16.25-21.25L16.25-21.25Q18.05-21.25 19.38-22.08 20.7-22.9 21.43-24.13 22.15-25.35 22.15-26.6L22.15-26.6Q22.15-28.15 20.98-29.33 19.8-30.5 17.15-30.5L17.15-30.5Q16.75-30.5 16.32-30.48 15.9-30.45 15.5-30.4L15.5-30.4Q15.55-30.05 15.55-29.73 15.55-29.4 15.55-29.4L15.55-29.4Q15.55-27.1 15.38-24.95 15.2-22.8 14.9-21.35L14.9-21.35Q15.25-21.3 15.58-21.28 15.9-21.25 16.25-21.25ZM48.45 0.2L48.45 0.2Q47 0.25 45.55-0.05 44.1-0.35 43.1-1.3L43.1-1.3Q43.15-2.55 43.07-5 43-7.45 42.8-10.48 42.6-13.5 42.17-16.6 41.75-19.7 41.07-22.33 40.4-24.95 39.45-26.55 38.5-28.15 37.2-28.15L37.2-28.15Q36.05-28.15 34.6-26.9L34.6-26.9 34.25-27.2Q35.65-31.5 37.92-33.75 40.2-36 42.65-36L42.65-36Q44.8-36 46.25-34.5 47.7-33 48.57-30.48 49.45-27.95 49.82-24.83 50.2-21.7 50.2-18.45L50.2-18.45Q50.2-15.85 50-13.35 49.8-10.85 49.45-8.75L49.45-8.75Q52.1-12.1 53.9-16.07 55.7-20.05 56.65-23.98 57.6-27.9 57.6-31.05L57.6-31.05Q57.6-31.65 57.55-32.27 57.5-32.9 57.4-33.4L57.4-33.4Q58.45-34.75 60.1-35.48 61.75-36.2 63.4-36.2L63.4-36.2Q65-36.2 66.2-35.52 67.4-34.85 67.7-33.4L67.7-33.4Q67.05-28.65 65.12-23.9 63.2-19.15 60.45-14.73 57.7-10.3 54.57-6.5 51.45-2.7 48.45 0.2ZM86.09 0.25L86.09 0.25Q83.34 0.25 81.49-2.05 79.64-4.35 79.64-8.35L79.64-8.35Q79.64-10.4 80.09-12.98 80.54-15.55 81.14-18.2 81.74-20.85 82.19-23.18 82.64-25.5 82.64-27.05L82.64-27.05Q82.64-28.15 82.34-28.78 82.04-29.4 81.24-29.4L81.24-29.4Q80.64-29.4 79.84-28.85 79.04-28.3 78.64-26.7L78.64-26.7 78.14-26.9Q78.14-31.2 80.12-33.7 82.09-36.2 85.44-36.2L85.44-36.2Q88.59-36.2 89.82-34.15 91.04-32.1 91.04-29L91.04-29Q91.04-26.7 90.57-24.1 90.09-21.5 89.49-18.93 88.89-16.35 88.42-14.15 87.94-11.95 87.94-10.5L87.94-10.5Q87.94-8.35 89.04-8.35L89.04-8.35Q89.69-8.35 90.79-9.28 91.89-10.2 93.12-11.83 94.34-13.45 95.49-15.53 96.64-17.6 97.44-19.9L97.44-19.9Q97.34-21 97.29-22.03 97.24-23.05 97.24-23.85L97.24-23.85Q97.24-27.85 98.02-30.3 98.79-32.75 99.99-33.9 101.19-35.05 102.44-35.05L102.44-35.05Q104.19-35.05 105.59-33.13 106.99-31.2 106.99-27.9L106.99-27.9Q106.99-25.85 106.24-23.33 105.49-20.8 103.74-17.95L103.74-17.95Q103.59-13.65 104.69-11 105.79-8.35 107.44-8.35L107.44-8.35Q108.49-8.35 109.72-9.43 110.94-10.5 111.99-12.43 113.04-14.35 113.72-16.9 114.39-19.45 114.39-22.35L114.39-22.35Q114.39-24.05 114.17-25.9 113.94-27.75 113.62-29.45 113.29-31.15 112.94-32.25L112.94-32.25Q112.94-33.1 113.67-33.98 114.39-34.85 115.54-35.48 116.69-36.1 117.89-36.1L117.89-36.1Q119.09-36.1 120.19-35.25 121.29-34.4 121.99-32.27 122.69-30.15 122.69-26.25L122.69-26.25Q122.69-20.8 121.29-16.03 119.89-11.25 117.52-7.6 115.14-3.95 112.29-1.88 109.44 0.2 106.49 0.2L106.49 0.2Q103.89 0.2 102.19-1.4 100.49-3 99.54-5.7 98.59-8.4 98.19-11.7L98.19-11.7Q96.39-7.4 94.29-4.78 92.19-2.15 90.09-0.95 87.99 0.25 86.09 0.25ZM135.24 0.35L135.24 0.35Q131.49 0.35 129.04-1.15 126.59-2.65 125.42-5.13 124.24-7.6 124.24-10.4L124.24-10.4Q124.24-13.05 125.22-15.7 126.19-18.35 128.06-20.53 129.94-22.7 132.64-24.03 135.34-25.35 138.84-25.35L138.84-25.35Q142.59-25.35 145.02-23.83 147.44-22.3 148.62-19.8 149.79-17.3 149.79-14.45L149.79-14.45Q149.79-11.85 148.84-9.22 147.89-6.6 146.02-4.42 144.14-2.25 141.44-0.95 138.74 0.35 135.24 0.35ZM136.59-3.9L136.59-3.9Q137.94-3.9 138.84-5.3 139.74-6.7 140.19-8.88 140.64-11.05 140.64-13.3L140.64-13.3Q140.64-15.3 140.27-17.07 139.89-18.85 139.14-19.98 138.39-21.1 137.19-21.1L137.19-21.1Q135.89-21.1 134.97-19.7 134.04-18.3 133.59-16.15 133.14-14 133.14-11.7L133.14-11.7Q133.14-9.7 133.52-7.93 133.89-6.15 134.64-5.03 135.39-3.9 136.59-3.9ZM158.54 0.2L158.54 0.2Q156.74 0.2 155.34-1.28 153.94-2.75 153.94-5.45L153.94-5.45Q153.94-6.75 154.24-8.4 154.54-10.05 154.94-11.78 155.34-13.5 155.64-15.03 155.94-16.55 155.94-17.55L155.94-17.55Q155.94-18.6 155.56-19.23 155.19-19.85 154.59-19.85L154.59-19.85Q153.64-19.85 152.64-18.55L152.64-18.55 152.34-18.75Q152.29-19.55 152.69-20.65 153.09-21.75 153.94-22.78 154.79-23.8 156.11-24.5 157.44-25.2 159.24-25.2L159.24-25.2Q161.89-25.2 163.09-23.68 164.29-22.15 164.29-20L164.29-20Q164.29-19.65 164.26-19.28 164.24-18.9 164.19-18.55L164.19-18.55Q165.99-21.8 167.96-23.53 169.94-25.25 171.64-25.25L171.64-25.25Q173.24-25.25 173.99-24 174.74-22.75 174.74-21L174.74-21Q174.74-19.4 174.11-17.75 173.49-16.1 172.26-15.03 171.04-13.95 169.29-14L169.29-14 169.09-14.1Q169.04-15.4 168.24-16.15 167.44-16.9 166.44-16.9L166.44-16.9Q165.09-16.9 163.91-15.55 162.74-14.2 162.74-11.65L162.74-11.65Q162.74-10.1 163.09-8.3 163.44-6.5 163.44-5.25L163.44-5.25Q163.44-3.75 162.74-2.5 162.04-1.25 160.94-0.53 159.84 0.2 158.54 0.2ZM181.94 0.2L181.94 0.2Q180.59 0.2 179.31-0.48 178.04-1.15 177.24-2.65 176.44-4.15 176.44-6.5L176.44-6.5Q176.44-8.6 177.01-11.43 177.59-14.25 178.31-17.3 179.04-20.35 179.59-23.25 180.14-26.15 180.09-28.4L180.09-28.4Q180.09-30.55 179.59-31.45L179.59-31.45 179.54-31.6Q180.09-33.2 181.49-34.1 182.89-35 184.44-35L184.44-35Q186.19-35 187.56-33.68 188.94-32.35 188.94-29.25L188.94-29.25Q188.94-27.6 188.54-25.33 188.14-23.05 187.59-20.48 187.04-17.9 186.46-15.4 185.89-12.9 185.49-10.8 185.09-8.7 185.09-7.35L185.09-7.35Q185.09-5.95 185.49-5.43 185.89-4.9 186.39-4.9L186.39-4.9Q186.94-4.9 187.44-5.33 187.94-5.75 188.09-6.1L188.09-6.1 188.49-6Q188.44-4.2 187.46-2.8 186.49-1.4 185.01-0.6 183.54 0.2 181.94 0.2ZM198.68 0.2L198.68 0.2Q196.88 0.2 195.31-1.05 193.73-2.3 192.76-4.7 191.78-7.1 191.78-10.5L191.78-10.5Q191.78-14 192.78-16.75 193.78-19.5 195.41-21.43 197.03-23.35 198.96-24.35 200.88-25.35 202.73-25.35L202.73-25.35Q204.78-25.35 206.38-24.08 207.98-22.8 208.58-20.1L208.58-20.1Q209.03-22.6 209.36-24.88 209.68-27.15 209.68-28.9L209.68-28.9Q209.68-31.2 209.08-32.25L209.08-32.25 209.08-32.55Q210.23-33.85 211.61-34.48 212.98-35.1 214.23-35.1L214.23-35.1Q215.88-35.1 217.03-34.08 218.18-33.05 218.18-31.15L218.18-31.15Q218.18-30.1 217.83-28.05 217.48-26 216.98-23.38 216.48-20.75 215.96-17.98 215.43-15.2 215.08-12.68 214.73-10.15 214.73-8.3L214.73-8.3Q214.73-6.75 215.06-5.83 215.38-4.9 216.13-4.9L216.13-4.9Q216.68-4.9 217.26-5.28 217.83-5.65 218.03-6.15L218.03-6.15 218.38-5.9Q218.38-4.25 217.33-2.88 216.28-1.5 214.68-0.65 213.08 0.2 211.38 0.2L211.38 0.2Q209.53 0.2 208.46-0.83 207.38-1.85 206.93-3.45 206.48-5.05 206.43-6.75L206.43-6.75Q204.88-3.15 202.81-1.48 200.73 0.2 198.68 0.2ZM202.03-6.15L202.03-6.15Q203.33-6.15 204.93-8.5 206.53-10.85 207.73-15.35L207.73-15.35 208.03-16.9Q207.23-18.75 206.31-19.53 205.38-20.3 204.53-20.3L204.53-20.3Q203.28-20.3 202.18-18.93 201.08-17.55 200.41-15.43 199.73-13.3 199.73-10.95L199.73-10.95Q199.73-8.7 200.38-7.43 201.03-6.15 202.03-6.15Z" opacity="1" transform="matrix(1,0,0,1,0,0)" fill="#ffffff" class="wordmark-text-0" data-fill-palette-color="primary" id="text-0"></path></svg></g></svg></g></svg></g></svg></g><g transform="matrix(1,0,0,1,94.46176657179919,0)"><svg viewBox="0 0 208.57406685640154 92.78928511347847" height="92.78928511347847" width="208.57406685640154"><g><svg xmlns="http://www.w3.org/2000/svg" xmlns:xlink="http://www.w3.org/1999/xlink" version="1.1" x="8" y="0" viewBox="2 25 95.358 45.94699999999999" enable-background="new 0 0 100 100" xml:space="preserve" height="92.78928511347847" width="192.57406685640154" class="icon-icon-0" data-fill-palette-color="accent" id="icon-0"><path d="M63.468 37.281h-22.32c-1.313 0-2.382 1.068-2.382 2.381v5.651c0 1.312 1.068 2.38 2.382 2.38h22.32c1.313 0 2.382-1.068 2.382-2.38v-5.651C65.85 38.35 64.781 37.281 63.468 37.281zM41.568 40.083h9.153v4.809h-9.153V40.083zM63.047 44.892h-9.524v-4.809h9.524V44.892z" fill="#b2fcfb" data-fill-palette-color="accent"></path><path d="M31.996 29.81h-5.697c-1.295 0-2.703 0.876-3.276 2.037l-0.767 1.55c-0.383 0.773-0.369 1.592 0.039 2.247 0.406 0.654 1.134 1.031 1.997 1.031h7.705c1.544 0 2.802-1.258 2.802-2.802v-1.262C34.798 31.067 33.54 29.81 31.996 29.81zM25.145 33.873l0.389-0.785c0.104-0.213 0.527-0.477 0.765-0.477h5.697v1.262H25.145z" fill="#b2fcfb" data-fill-palette-color="accent"></path><path d="M29.491 41.542h-4.943c-0.924 0-2.085 0.323-2.691 1.214l-2.505 2.793-0.078 0.142c-0.601 1.069-0.626 2.276-0.069 3.227 0.505 0.864 1.407 1.378 2.413 1.378h7.873c1.325 0 2.402-1.073 2.402-2.392v-3.971C31.893 42.615 30.815 41.542 29.491 41.542zM28.951 47.354h-7.2c0.005-0.03 0.015-0.067 0.032-0.111l2.432-2.71c0.083-0.026 0.213-0.05 0.333-0.05h4.403V47.354z" fill="#b2fcfb" data-fill-palette-color="accent"></path><path d="M97.358 48.768l-1.62-0.135 0.295-1.775-0.036-0.224c-0.246-1.543-2.406-15.112-2.792-16.462-0.348-1.218-0.589-2.597-0.592-2.611l-0.202-1.162-1.18 0.001c-0.198 0-8.698 0.011-19.863 0.024L71.858 25H55.934l-0.631 1.441c-11.276 0.011-22.672 0.02-29.975 0.02-6.282 0-7.81-0.006-7.974-0.012-0.047-0.002-0.095-0.003-0.141-0.003-1.37 0-2.161 0.922-2.472 1.579l-3.638 5.637c-0.248 0.321-0.935 1.318-0.865 2.445 0.071 1.141 0.693 1.818 0.952 2.054l1.635 1.637 6.439 0.053-6.387 6.675c-0.188 0.186-0.829 0.733-1.472 0.985-0.541 0.211-1.868 0.771-3.124 1.371-2.261 1.082-2.754 1.599-3.133 2.108-0.031 0.038-0.09 0.102-0.143 0.172-0.172 0.224-0.733 0.875-0.921 1.917l-0.108 0.806c-0.08 0.661 0.05 2.546 0.112 4.181L2 59.352l2.391 6.74h4.725l0.5-0.001c0.653 2.702 3.09 4.718 5.991 4.718 3.12 0 5.705-2.332 6.107-5.345 0.317 0.194 0.677 0.342 1.083 0.441 0.609 0.148 1.302 0.193 2.169 0.193 0.566 0 1.207-0.019 1.947-0.041 0.754-0.022 1.608-0.049 2.577-0.059 3.329-0.036 5.914-0.072 6.923-0.087 0.688 0.007 17.626 0.199 22.883 0.199 1.599 0 1.673-0.014 1.832-0.046 0.247-0.05 0.464-0.135 0.655-0.245 0.495 2.907 3.03 5.128 6.075 5.128 3.031 0 5.556-2.2 6.067-5.085 0.262 0.11 0.551 0.167 0.856 0.167 0.397 0 0.751-0.097 0.966-0.17l17.66-3.188 0.3-1.811h1.898L97.358 48.768zM15.606 68.007c-1.854 0-3.363-1.508-3.363-3.363 0-1.853 1.508-3.362 3.363-3.362 1.854 0 3.361 1.509 3.361 3.362C18.968 66.499 17.46 68.007 15.606 68.007zM29.459 63.197c-0.996 0.011-1.864 0.036-2.631 0.06-3.678 0.111-3.717-0.02-3.904-0.647l-0.104-0.354c-0.602-2.033-1.037-3.501-2.762-4.836-1.613-1.249-4.826-2.117-8.573-0.453-1.61 0.715-2.773 2.323-3.362 4.648-0.153 0.606-0.25 1.186-0.309 1.675H6.37l-0.972-2.74 1.553-0.956-0.031-0.817c-0.08-2.124-0.144-3.67-0.187-4.599-0.016-0.331-0.027-0.535-0.035-0.658 0.029-0.079 0.248-0.408 0.43-0.587 0.191-0.185 0.188-0.232 0.484-0.511 0.589-0.575 3.336-1.724 4.815-2.303 1.31-0.513 2.33-1.51 2.442-1.622l8.243-8.615 11.565 0.095 0.312 23.152C33.676 63.147 31.743 63.172 29.459 63.197zM67.857 68.146c-1.854 0-3.362-1.508-3.362-3.363 0-1.854 1.508-3.362 3.362-3.362 1.854 0 3.362 1.508 3.362 3.362C71.22 66.638 69.712 68.146 67.857 68.146zM75.16 63.12c-0.379-0.801-1.015-2.339-1.533-3.674-0.178-0.589-0.707-1.171-1.579-1.281-0.098-0.013-0.202-0.02-0.728-0.02-1.72 0-6.646 0.091-7.261 0.102-0.029-0.001-0.062-0.002-0.098-0.002-0.831 0-1.501 0.438-1.76 1.149-0.134 0.313-1.059 2.168-1.94 3.914-0.212 0.001-0.52 0.002-0.965 0.002-4.443 0-17.279-0.137-21.506-0.184l-0.349-25.926-23.445-0.194-0.855-0.855c0 0-0.055-0.052-0.059-0.057-0.027-0.042-0.043-0.096-0.047-0.146 0.007-0.116 0.155-0.406 0.291-0.577l0.051-0.062 3.78-5.859 0.083-0.04 0.037-0.158c0.209 0.005 1.209 0.013 8.052 0.013 17.271 0 57.437-0.05 64.755-0.059 0.111 0.514 0.257 1.137 0.429 1.737 0.252 0.882 1.764 10.126 2.682 15.907l-2.229 13.417L75.16 63.12z" fill="#b2fcfb" data-fill-palette-color="accent"></path></svg></g></svg></g><g><rect width="17.92864657179922" height="6.054872279360148" y="85.73441283411832" x="303.0358334282007" fill="#ffffff" data-fill-palette-color="secondary"></rect><rect width="17.92864657179922" height="6.054872279360148" y="85.73441283411832" x="76.53311999999997" fill="#ffffff" data-fill-palette-color="secondary"></rect></g></svg></g><defs></defs></svg><rect width="395.52" height="196.7028512828625" fill="none" stroke="none" visibility="hidden"></rect></g></svg></g></svg>